#!OML:ASF F:\VICON\USERDATA\INSTALL\rory3\rory3.ASF
:FULLY-SPECIFIED
:DEGREES
1436
root -0.427656 18.341 3.59855 -0.921373 -8.74522 0.961377
lowerback 4.59485 -0.208322 -2.28109
upperback 0.147379 -0.409371 -0.442379
thorax -2.41202 -0.180949 0.851879
lowerneck -4.18 -6.10912 -13.0208
upperneck 13.554 -8.12693 7.44428
head 5.61445 -4.19012 3.92399
rclavicle -9.40811e-015 -4.37326e-015
rhumerus -1.80455 -46.7665 -13.4049
rradius 15.5781
rwrist 12.4746
rhand -23.6954 -4.59185
rfingers 7.12502
rthumb 2.77151 -34.5536
lclavicle -9.40811e-015 -4.37326e-015
lhumerus -20.9648 28.5738 -3.20371
lradius 16.1911
lwrist 4.36325
lhand -18.8778 28.8662
lfingers 7.12502
lthumb 7.42307 58.7159
rfemur -5.0611 28.3766 6.78413
rtibia 19.9517
rfoot -17.0441 -11.7802
rtoes -10.4181
lfemur 4.74668 -12.9215 -10.8561
ltibia 14.7486
lfoot -23.5066 30.8971
ltoes -2.31061
1437
root -0.425234 18.336 3.59951 -1.00786 -8.62287 1.0345
lowerback 4.57627 -0.228209 -2.35214
upperback 0.108524 -0.440305 -0.465493
thorax -2.44031 -0.195078 0.869982
lowerneck -4.13225 -6.11795 -13.1189
upperneck 13.7118 -8.15293 7.50754
head 5.66506 -4.20729 3.95881
rclavicle -6.15611e-015 2.18663e-015
rhumerus -0.574776 -47.1248 -13.5308
rradius 15.6503
rwrist 12.4724
rhand -23.6426 -4.89139
rfingers 7.12502
rthumb 2.82251 -34.8525
lclavicle -6.15611e-015 2.18663e-015
lhumerus -19.7814 27.9166 -3.2118
lradius 16.3732
lwrist 5.82066
lhand -19.6016 29.6201
lfingers 7.12502
lthumb 6.72442 59.4933
rfemur -4.86665 28.4199 6.73985
rtibia 19.8615
rfoot -17.1451 -11.7209
rtoes -10.0781
lfemur 4.74667 -12.973 -10.9456
ltibia 14.8431
lfoot -23.4781 30.8454
ltoes -2.40197
1438
root -0.422701 18.3306 3.60022 -1.08158 -8.54927 1.07157
lowerback 4.51516 -0.239818 -2.36956
upperback 0.109727 -0.455017 -0.473518
thorax -2.40425 -0.202656 0.872065
lowerneck -4.32857 -6.17719 -13.1551
upperneck 13.9866 -8.2059 7.42845
head 5.78928 -4.23893 3.92817
rclavicle -1.6524e-015 -9.74045e-015
rhumerus 0.670909 -46.9666 -13.6473
rradius 15.8093
rwrist 11.8262
rhand -23.8543 -5.21932
rfingers 7.12502
rthumb 2.61803 -35.183
lclavicle -1.6524e-015 -9.74045e-015
lhumerus -18.6387 27.8411 -3.38878
lradius 16.4862
lwrist 6.63783
lhand -19.8761 30.0068
lfingers 7.12502
lthumb 6.45943 59.8883
rfemur -4.73141 28.449 6.72294
rtibia 19.8202
rfoot -17.2886 -11.6436
rtoes -9.80141
lfemur 4.78457 -13.0683 -11.0134
ltibia 14.8866
lfoot -23.4622 30.8707
ltoes -2.34802
1439
root -0.419617 18.3285 3.60236 -1.20276 -8.50608 1.18807
lowerback 4.4119 -0.241052 -2.43662
upperback 0.167587 -0.457506 -0.53908
thorax -2.28677 -0.205267 0.841581
lowerneck -4.59646 -6.24029 -13.1075
upperneck 14.2786 -8.26119 7.33502
head 5.92729 -4.26703 3.87709
rclavicle 1.5061e-014 -1.21259e-014
rhumerus 1.90886 -46.6086 -13.7865
rradius 16.0115
rwrist 10.9004
rhand -24.304 -5.54847
rfingers 7.12502
rthumb 2.18375 -35.517
lclavicle 1.5061e-014 -1.21259e-014
lhumerus -17.4792 27.8393 -3.64994
lradius 16.6439
lwrist 7.23065
lhand -19.9765 30.3124
lfingers 7.12502
lthumb 6.36252 60.1968
rfemur -4.56118 28.3495 6.63829
rtibia 19.7794
rfoot -17.3146 -11.5805
rtoes -9.5276
lfemur 4.871 -13.1583 -11.1998
ltibia 14.9732
lfoot -23.5866 30.8734
ltoes -2.34583
1440
root -0.418084 18.3277 3.60262 -1.28231 -8.4687 1.29938
lowerback 4.28907 -0.220125 -2.52815
upperback 0.174019 -0.431624 -0.602559
thorax -2.21198 -0.192628 0.825281
lowerneck -4.59543 -6.24825 -13.1019
upperneck 14.4177 -8.28248 7.35451
head 5.97355 -4.27791 3.88045
rclavicle 1.79621e-014 -1.98785e-016
rhumerus 2.99522 -45.9181 -13.7473
rradius 16.238
rwrist 9.65586
rhand -25.0207 -5.67739
rfingers 7.12502
rthumb 1.4916 -35.6519
lclavicle 1.79621e-014 -1.98785e-016
lhumerus -16.206 28.1119 -3.89588
lradius 16.7639
lwrist 7.35977
lhand -19.8059 30.1301
lfingers 7.12502
lthumb 6.52716 60.0095
rfemur -4.47109 28.2663 6.54149
rtibia 19.7696
rfoot -17.2658 -11.5008
rtoes -9.58935
lfemur 4.89571 -13.0852 -11.3266
ltibia 15.0486
lfoot -23.4859 30.79
ltoes -2.62215
1441
root -0.41854 18.3286 3.59622 -1.30897 -8.40605 1.26264
lowerback 4.25795 -0.224712 -2.557
upperback 0.0953218 -0.439042 -0.577546
thorax -2.27485 -0.194524 0.867647
lowerneck -4.3471 -6.17972 -13.21
upperneck 14.3781 -8.23259 7.50669
head 5.92339 -4.2553 3.95883
rclavicle -2.8597e-014 4.96962e-015
rhumerus 4.45119 -46.0605 -14.0341
rradius 16.33
rwrist 9.3332
rhand -25.7623 -5.4526
rfingers 7.12502
rthumb 0.775352 -35.4309
lclavicle -2.8597e-014 4.96962e-015
lhumerus -14.9971 28.3251 -4.11496
lradius 16.9151
lwrist 7.55872
lhand -19.7559 29.7266
lfingers 7.12502
lthumb 6.57547 59.6045
rfemur -4.46998 28.2847 6.61585
rtibia 19.8317
rfoot -17.224 -11.6001
rtoes -9.94149
lfemur 4.88373 -13.0066 -11.2451
ltibia 15.0444
lfoot -23.418 30.6419
ltoes -2.58098
